<mxfile host="Electron" agent="Mozilla/5.0 (Macintosh; Intel Mac OS X 10_15_7) AppleWebKit/537.36 (KHTML, like Gecko) draw.io/24.7.17 Chrome/128.0.6613.36 Electron/32.0.1 Safari/537.36" version="24.7.17">
  <diagram name="Page-1" id="psQXDYJPF0Q8wrk1Ts-G">
    <mxGraphModel dx="658" dy="434" grid="1" gridSize="10" guides="1" tooltips="1" connect="1" arrows="1" fold="1" page="1" pageScale="1" pageWidth="3000" pageHeight="3000" math="0" shadow="0">
      <root>
        <mxCell id="0" />
        <mxCell id="1" parent="0" />
        <mxCell id="FJCO3vSektQQV1xA6ADi-55" value="" style="rounded=0;whiteSpace=wrap;html=1;fillColor=#E6E6E6;strokeColor=none;" vertex="1" parent="1">
          <mxGeometry x="410" y="340" width="340" height="300" as="geometry" />
        </mxCell>
        <mxCell id="FJCO3vSektQQV1xA6ADi-9" value="" style="rounded=0;whiteSpace=wrap;html=1;fillColor=#FFCCCC;strokeColor=none;" vertex="1" parent="1">
          <mxGeometry x="260" y="340" width="140" height="300" as="geometry" />
        </mxCell>
        <mxCell id="FJCO3vSektQQV1xA6ADi-10" value="Is the meme dead?" style="text;html=1;align=center;verticalAlign=middle;whiteSpace=wrap;rounded=0;fontStyle=3;fontSize=12;" vertex="1" parent="1">
          <mxGeometry x="270" y="340" width="120" height="20" as="geometry" />
        </mxCell>
        <mxCell id="FJCO3vSektQQV1xA6ADi-15" style="edgeStyle=orthogonalEdgeStyle;rounded=0;orthogonalLoop=1;jettySize=auto;html=1;exitX=0.5;exitY=1;exitDx=0;exitDy=0;entryX=0.5;entryY=0;entryDx=0;entryDy=0;strokeColor=#FF0000;" edge="1" parent="1" source="FJCO3vSektQQV1xA6ADi-12" target="FJCO3vSektQQV1xA6ADi-13">
          <mxGeometry relative="1" as="geometry" />
        </mxCell>
        <mxCell id="FJCO3vSektQQV1xA6ADi-12" value="&lt;font style=&quot;font-size: 9px;&quot;&gt;&lt;font style=&quot;font-size: 9px;&quot;&gt;Q:&amp;nbsp;&lt;/font&gt;Does the meme have enough transfers to be considered active over the past week?&lt;/font&gt;" style="rounded=1;whiteSpace=wrap;html=1;" vertex="1" parent="1">
          <mxGeometry x="270" y="380" width="100" height="60" as="geometry" />
        </mxCell>
        <mxCell id="FJCO3vSektQQV1xA6ADi-16" style="edgeStyle=orthogonalEdgeStyle;rounded=0;orthogonalLoop=1;jettySize=auto;html=1;exitX=0.5;exitY=1;exitDx=0;exitDy=0;entryX=0.5;entryY=0;entryDx=0;entryDy=0;strokeColor=#FF0000;" edge="1" parent="1" source="FJCO3vSektQQV1xA6ADi-13" target="FJCO3vSektQQV1xA6ADi-14">
          <mxGeometry relative="1" as="geometry" />
        </mxCell>
        <mxCell id="FJCO3vSektQQV1xA6ADi-44" style="edgeStyle=orthogonalEdgeStyle;rounded=1;orthogonalLoop=1;jettySize=auto;html=1;entryX=0.5;entryY=0;entryDx=0;entryDy=0;curved=0;strokeColor=#00FF00;" edge="1" parent="1" source="FJCO3vSektQQV1xA6ADi-13" target="FJCO3vSektQQV1xA6ADi-34">
          <mxGeometry relative="1" as="geometry">
            <Array as="points">
              <mxPoint x="400" y="500" />
              <mxPoint x="400" y="360" />
              <mxPoint x="500" y="360" />
            </Array>
          </mxGeometry>
        </mxCell>
        <mxCell id="FJCO3vSektQQV1xA6ADi-13" value="&lt;font style=&quot;font-size: 9px;&quot;&gt;&lt;font style=&quot;font-size: 9px;&quot;&gt;Q:&amp;nbsp;&lt;/font&gt;Has the majority of the liquidity been withdrawn over the past week?&lt;/font&gt;" style="rounded=1;whiteSpace=wrap;html=1;align=center;" vertex="1" parent="1">
          <mxGeometry x="270" y="470" width="100" height="60" as="geometry" />
        </mxCell>
        <mxCell id="FJCO3vSektQQV1xA6ADi-29" style="edgeStyle=orthogonalEdgeStyle;rounded=0;orthogonalLoop=1;jettySize=auto;html=1;exitX=0.5;exitY=1;exitDx=0;exitDy=0;entryX=0.5;entryY=0;entryDx=0;entryDy=0;strokeColor=#FF0000;" edge="1" parent="1" source="FJCO3vSektQQV1xA6ADi-14" target="FJCO3vSektQQV1xA6ADi-28">
          <mxGeometry relative="1" as="geometry" />
        </mxCell>
        <mxCell id="FJCO3vSektQQV1xA6ADi-45" style="edgeStyle=orthogonalEdgeStyle;rounded=1;orthogonalLoop=1;jettySize=auto;html=1;entryX=0.5;entryY=0;entryDx=0;entryDy=0;curved=0;strokeColor=#00CC00;" edge="1" parent="1" source="FJCO3vSektQQV1xA6ADi-14" target="FJCO3vSektQQV1xA6ADi-34">
          <mxGeometry relative="1" as="geometry">
            <Array as="points">
              <mxPoint x="400" y="590" />
              <mxPoint x="400" y="360" />
              <mxPoint x="500" y="360" />
            </Array>
          </mxGeometry>
        </mxCell>
        <mxCell id="FJCO3vSektQQV1xA6ADi-14" value="&lt;font style=&quot;font-size: 9px;&quot;&gt;&lt;font style=&quot;font-size: 9px;&quot;&gt;Q:&amp;nbsp;&lt;/font&gt;Has the liquidity recovered over the past week?&lt;/font&gt;" style="rounded=1;whiteSpace=wrap;html=1;" vertex="1" parent="1">
          <mxGeometry x="270" y="560" width="100" height="60" as="geometry" />
        </mxCell>
        <mxCell id="FJCO3vSektQQV1xA6ADi-18" value="Is the meme potentially a scam?" style="text;html=1;align=center;verticalAlign=middle;whiteSpace=wrap;rounded=0;fontStyle=3;fontSize=12;" vertex="1" parent="1">
          <mxGeometry x="467.5" y="340" width="205" height="20" as="geometry" />
        </mxCell>
        <mxCell id="FJCO3vSektQQV1xA6ADi-20" value="&lt;font style=&quot;font-size: 9px;&quot;&gt;No&lt;/font&gt;" style="text;html=1;align=center;verticalAlign=middle;whiteSpace=wrap;rounded=0;fillColor=#FFCCCC;" vertex="1" parent="1">
          <mxGeometry x="311.25" y="445" width="20" height="10" as="geometry" />
        </mxCell>
        <mxCell id="FJCO3vSektQQV1xA6ADi-21" value="&lt;font style=&quot;font-size: 9px;&quot;&gt;Yes&lt;/font&gt;" style="text;html=1;align=center;verticalAlign=middle;whiteSpace=wrap;rounded=0;fillColor=#FFCCCC;" vertex="1" parent="1">
          <mxGeometry x="310.25" y="535" width="20" height="10" as="geometry" />
        </mxCell>
        <mxCell id="FJCO3vSektQQV1xA6ADi-28" value="&lt;font style=&quot;font-size: 9px;&quot;&gt;Black List&lt;/font&gt;" style="ellipse;whiteSpace=wrap;html=1;aspect=fixed;" vertex="1" parent="1">
          <mxGeometry x="300" y="650" width="40" height="40" as="geometry" />
        </mxCell>
        <mxCell id="FJCO3vSektQQV1xA6ADi-30" value="&lt;font style=&quot;font-size: 9px;&quot;&gt;No&lt;/font&gt;" style="text;html=1;align=center;verticalAlign=middle;whiteSpace=wrap;rounded=0;fillColor=#FFCCCC;" vertex="1" parent="1">
          <mxGeometry x="311.25" y="625" width="20" height="10" as="geometry" />
        </mxCell>
        <mxCell id="FJCO3vSektQQV1xA6ADi-60" style="edgeStyle=orthogonalEdgeStyle;rounded=1;orthogonalLoop=1;jettySize=auto;html=1;exitX=1;exitY=0.5;exitDx=0;exitDy=0;entryX=0.5;entryY=0;entryDx=0;entryDy=0;curved=0;strokeColor=#00CC00;" edge="1" parent="1" source="FJCO3vSektQQV1xA6ADi-33" target="FJCO3vSektQQV1xA6ADi-37">
          <mxGeometry relative="1" as="geometry">
            <Array as="points">
              <mxPoint x="570" y="590" />
              <mxPoint x="570" y="360" />
              <mxPoint x="665" y="360" />
            </Array>
          </mxGeometry>
        </mxCell>
        <mxCell id="FJCO3vSektQQV1xA6ADi-69" style="edgeStyle=orthogonalEdgeStyle;rounded=1;orthogonalLoop=1;jettySize=auto;html=1;exitX=0;exitY=0.5;exitDx=0;exitDy=0;entryX=1;entryY=0.5;entryDx=0;entryDy=0;curved=0;strokeColor=#FF0000;" edge="1" parent="1" source="FJCO3vSektQQV1xA6ADi-33" target="FJCO3vSektQQV1xA6ADi-28">
          <mxGeometry relative="1" as="geometry">
            <Array as="points">
              <mxPoint x="420" y="590" />
              <mxPoint x="420" y="670" />
            </Array>
          </mxGeometry>
        </mxCell>
        <mxCell id="FJCO3vSektQQV1xA6ADi-33" value="&lt;font style=&quot;font-size: 9px;&quot;&gt;Q: Are there suspicious accounts with the same creating time, funding sources, and transfer pattern?&lt;/font&gt;" style="rounded=1;whiteSpace=wrap;html=1;" vertex="1" parent="1">
          <mxGeometry x="435" y="560" width="130" height="60" as="geometry" />
        </mxCell>
        <mxCell id="FJCO3vSektQQV1xA6ADi-1" value="" style="shape=image;verticalLabelPosition=bottom;labelBackgroundColor=default;verticalAlign=top;aspect=fixed;imageAspect=0;image=data:image/png,iVBORw0KGgoAAAANSUhEUgAAAPoAAAD6CAYAAACI7Fo9AAAACXBIWXMAAA7EAAAOxAGVKw4bAAAIg0lEQVR4nO3dsYsc5xkG8NlcijR2/oIsBNwEI5MikBQLEkdQFyI3Ka5ycUXAhYtAECkUosKIQBJcCFJc4UqBNFJwZREOFVukNBHGjcBwfYrYTZrj0gRSfK/wK83crnTP71d+7N7MzvHwwcM7M6uL6WICrrZv7fsEgMsn6BBA0CGAoEMAQYcAgg4BBB0CCDoEEHQIIOgQQNAhgKBDAEGHAIIOAQQdAgg6BBB0CCDoEEDQIYCgQwBBhwCCDgEEHQIIOgQQdAgg6BBA0CGAoEMAQYcA3973CfDNVtOt1+6VtxfTo9W+z4H/s6NDAEGHAIIOAQQdAijj9qhbsm2mm8Pa+mDdOsZ63ftc5ezsrPe58/Fz3d+mtNsNOzoEEHQIIOgQQNAhwOpieu2Grl5LVTnVLdnmFGr7UhV5VWm3nR4Pawq65dnRIYCgQwBBhwCCDgGUcZcgrXjrUtDtjx0dAgg6BBB0CCDoEMBtqjuSVrxVyt9b3Ql7fumnEseODgEEHQIIOgQQdAigjJupOwXXVRVW1URZ9bntdrvoMSqbzab13VnHKK5fdZ1Ny/XZ0SGAoEMAQYcAgg4BlHGXYM7LFeYUb9Utn6XiY93vVsdduqArr59puVns6BBA0CGAoEMAQYcAyrgXsPQUXKVdYjWftVaaUWxtznu/t/s72sc1LTeLHR0CCDoEEHQIIOgQQBl3CaqirJr26r7QoFIVbw/fe9Y6xpyJvHc/Hs/laDoa/17xO7q3qbYn/Gizo0MAQYcAgg4BBB0CKOMuQVWUVRNl66m4/bT4blV2VZYu3ury7K3WuZTXYCpuZ21O+C09gZjGjg4BBB0CCDoEEHQIoIzbo/akWPNzV/kYzGNHhwCCDgEEHQIIOgRQxu1I+Ty38tltfxtW7n3Z+9zJ6fip48M3vunUnuvk9OvWcbvn98BLGPbGjg4BBB0CCDoEEHQIoIx7AdeKgml8t2j/u0+nnw9rT548GdZu3PjTsHZxMby7YFqtln13wdNirT7urWGt+zu616UqM6vvUrOjQwBBhwCCDgEEHQIo42b66HAcR/vg9HBYq4qtanrs+vVHw9rRwTihtnTx1lUd9+jgk2Ht+vXrxbdvDCv1dRlV17maBKRmR4cAgg4BBB0CCDoEUMZdgnraa1lVAVZZr28Pa90XOBwd3HvxE1tAPfH28rfbYkeHCIIOAQQdAgg6BFhdTONth0zTaro1XJjqjZ7/nt5v/b2bxUtI//BsXLtWfLcq8qrP3X3v7da5zHHn48+Hte75VZ/7VXFdHhfXpfLd6f6wVt3OejE92s8Y4SvEjg4BBB0CCDoEEHQIoIx7jqqM66omu6oybr0ep72qCbVqrZpu227HomyzefmCrvv3uudXr4234FZlXPUcuS5lnB0dIgg6BBB0CCDoEMBtqlO/eKtKneq71cTW42fjBN3NqXpb6VhYzVFNsnVVBWJlu+29xqJbvFXXb2pOvFX/j2otraCzo0MAQYcAgg4BBB0CxE3GLV28HR0cD989O+8Vat1bXI8Pe89LqybUllZNt1VOTquicVQXb6P1wfjbHpyfDGvd/1vlKhd0dnQIIOgQQNAhgKBDgLjJuH0VLlWZdHbee+bZyWn1QoPRzbfGKbjqVtiu7iRbpbqttHrmXn1dlp0OvMolW5cdHQIIOgQQdAgg6BAgrozrWnoKbo7289KeFaXds96E2uLnsrDqOlf/j9W5W1IrdnQIIOgQQNAhgKBDAGXcJaimvfp6U3CVg7//dcZxm376ixlfHifjKruYlktjR4cAgg4BBB0CCDoEiHtmXGXpKbhumbRtPjOuPEbzDaaVHxal3WfNkm3OcSub4plxc8q4Oc+Wu8rs6BBA0CGAoEMAQYcAJuNeQPU8t6q0m6NbdlVr3e9+9viPi57L0t8t/16zZDualv1/XBV2dAgg6BBA0CGAoEMAk3FT/22bldvfvzusVaXTg/Oftf7e0iVW5e5/xlLxznd6t5B2zfkdRweftP7evS/vvPiJ/Y/JOODKEXQIIOgQQNAhgMm456jKmm5pN+f5ZrOmx5oF2Ha7XfTvVeb8jur6rafec/jm/N+uMjs6BBB0CCDoEEDQIYAybqay7Go+C24XU3CVzWYzrI2zcstrl4XF9VufjdNy9NnRIYCgQwBBhwCCDgGUcdP+bllcegpuF/Y1LTdH2i2pFTs6BBB0CCDoEEDQIYAybqbqJQKVbnm2r8JqF+Zcg+51pmZHhwCCDgEEHQIIOgRQxl2CD9+/Paz95v69RY+xi9Ju6WN0/159/b5Y9FzS2NEhgKBDAEGHAIIOAZRxM1W3QL5zfzW8MKAsmE6Lgq7ZOc2ZMuuWYotP8/1gXPrwcLwufymKy4vpwosZZrCjQwBBhwCCDgEEHQIo43bkX5+OBdPDzdvD2rtffN76e6/jZNzDH4+/d1tcF5ZnR4cAgg4BBB0CCDoEWF1Mhot24Z1pnJY7Pnxj+NwHp1/3/uCvfzL7nBbz+3+0PvZR8XtPit/7z2IKjnns6BBA0CGAoEMAQYcAyrg9qgq6ytPLPpFLcK35OcXbbtjRIYCgQwBBhwCCDgGUca+BVbO066qfv3b5x2B/7OgQQNAhgKBDAEGHAIIOAQQdAgg6BBB0CCDoEEDQIYCgQwBBhwCCDgEEHQJ4m+orZunbRfel+h1uXd0fOzoEEHQIIOgQQNAhgDJuj7rF23q9HtbOzs6GtT+/+bth7eSrk9a5/Gj63rB2/ObxsPbLr3770uenoNsfOzoEEHQIIOgQQNAhgDLuFVMVW6+jbkHHbtjRIYCgQwBBhwCCDgG8TXWP9nVL6i7epjrnXFieHR0CCDoEEHQIIOgQQBkHAezoEEDQIYCgQwBBhwCCDgEEHQIIOgQQdAgg6BBA0CGAoEMAQYcAgg4BBB0C/Be+lmekVPwPUwAAAABJRU5ErkJggg==;" vertex="1" parent="1">
          <mxGeometry x="380" y="310" width="50" height="50" as="geometry" />
        </mxCell>
        <mxCell id="FJCO3vSektQQV1xA6ADi-40" style="edgeStyle=orthogonalEdgeStyle;rounded=0;orthogonalLoop=1;jettySize=auto;html=1;exitX=0.5;exitY=1;exitDx=0;exitDy=0;entryX=0.5;entryY=0;entryDx=0;entryDy=0;strokeColor=#00CC00;" edge="1" parent="1" source="FJCO3vSektQQV1xA6ADi-34" target="FJCO3vSektQQV1xA6ADi-35">
          <mxGeometry relative="1" as="geometry" />
        </mxCell>
        <mxCell id="FJCO3vSektQQV1xA6ADi-67" style="edgeStyle=orthogonalEdgeStyle;rounded=1;orthogonalLoop=1;jettySize=auto;html=1;entryX=1;entryY=0.5;entryDx=0;entryDy=0;curved=0;strokeColor=#FF0000;" edge="1" parent="1" source="FJCO3vSektQQV1xA6ADi-34" target="FJCO3vSektQQV1xA6ADi-28">
          <mxGeometry relative="1" as="geometry">
            <Array as="points">
              <mxPoint x="420" y="410" />
              <mxPoint x="420" y="670" />
            </Array>
          </mxGeometry>
        </mxCell>
        <mxCell id="FJCO3vSektQQV1xA6ADi-34" value="&lt;font style=&quot;font-size: 9px;&quot;&gt;Q: Does the meme have excessively concentrated token holding?&lt;/font&gt;" style="rounded=1;whiteSpace=wrap;html=1;" vertex="1" parent="1">
          <mxGeometry x="435" y="380" width="130" height="60" as="geometry" />
        </mxCell>
        <mxCell id="FJCO3vSektQQV1xA6ADi-50" style="edgeStyle=orthogonalEdgeStyle;rounded=0;orthogonalLoop=1;jettySize=auto;html=1;exitX=0.5;exitY=1;exitDx=0;exitDy=0;entryX=0.5;entryY=0;entryDx=0;entryDy=0;strokeColor=#00CC00;" edge="1" parent="1" source="FJCO3vSektQQV1xA6ADi-35" target="FJCO3vSektQQV1xA6ADi-33">
          <mxGeometry relative="1" as="geometry" />
        </mxCell>
        <mxCell id="FJCO3vSektQQV1xA6ADi-68" style="edgeStyle=orthogonalEdgeStyle;rounded=1;orthogonalLoop=1;jettySize=auto;html=1;exitX=0;exitY=0.5;exitDx=0;exitDy=0;curved=0;strokeColor=#FF0000;entryX=1;entryY=0.5;entryDx=0;entryDy=0;" edge="1" parent="1" source="FJCO3vSektQQV1xA6ADi-35" target="FJCO3vSektQQV1xA6ADi-28">
          <mxGeometry relative="1" as="geometry">
            <mxPoint x="350" y="670" as="targetPoint" />
            <Array as="points">
              <mxPoint x="420" y="500" />
              <mxPoint x="420" y="670" />
            </Array>
          </mxGeometry>
        </mxCell>
        <mxCell id="FJCO3vSektQQV1xA6ADi-35" value="&lt;font style=&quot;font-size: 9px;&quot;&gt;Q: Does the meme have abundant trading activities?&lt;/font&gt;" style="rounded=1;whiteSpace=wrap;html=1;" vertex="1" parent="1">
          <mxGeometry x="435" y="470" width="130" height="60" as="geometry" />
        </mxCell>
        <mxCell id="FJCO3vSektQQV1xA6ADi-36" value="&lt;font style=&quot;font-size: 9px;&quot;&gt;White List&lt;/font&gt;" style="ellipse;whiteSpace=wrap;html=1;aspect=fixed;" vertex="1" parent="1">
          <mxGeometry x="646" y="650" width="40" height="40" as="geometry" />
        </mxCell>
        <mxCell id="FJCO3vSektQQV1xA6ADi-58" style="edgeStyle=orthogonalEdgeStyle;rounded=0;orthogonalLoop=1;jettySize=auto;html=1;exitX=0.5;exitY=1;exitDx=0;exitDy=0;entryX=0.5;entryY=0;entryDx=0;entryDy=0;strokeColor=#00CC00;" edge="1" parent="1" source="FJCO3vSektQQV1xA6ADi-37" target="FJCO3vSektQQV1xA6ADi-38">
          <mxGeometry relative="1" as="geometry" />
        </mxCell>
        <mxCell id="FJCO3vSektQQV1xA6ADi-70" style="edgeStyle=orthogonalEdgeStyle;rounded=1;orthogonalLoop=1;jettySize=auto;html=1;exitX=0;exitY=0.5;exitDx=0;exitDy=0;entryX=1;entryY=0.5;entryDx=0;entryDy=0;curved=0;strokeColor=#FF0000;" edge="1" parent="1" source="FJCO3vSektQQV1xA6ADi-37" target="FJCO3vSektQQV1xA6ADi-28">
          <mxGeometry relative="1" as="geometry">
            <Array as="points">
              <mxPoint x="580" y="410" />
              <mxPoint x="580" y="670" />
            </Array>
          </mxGeometry>
        </mxCell>
        <mxCell id="FJCO3vSektQQV1xA6ADi-37" value="&lt;font style=&quot;font-size: 9px;&quot;&gt;Q: Does the meme uploaded verified smart contracts in Etherscan?&lt;/font&gt;" style="rounded=1;whiteSpace=wrap;html=1;" vertex="1" parent="1">
          <mxGeometry x="600" y="380" width="130" height="60" as="geometry" />
        </mxCell>
        <mxCell id="FJCO3vSektQQV1xA6ADi-59" style="edgeStyle=orthogonalEdgeStyle;rounded=0;orthogonalLoop=1;jettySize=auto;html=1;exitX=0.5;exitY=1;exitDx=0;exitDy=0;entryX=0.5;entryY=0;entryDx=0;entryDy=0;strokeColor=#00CC00;" edge="1" parent="1" source="FJCO3vSektQQV1xA6ADi-38" target="FJCO3vSektQQV1xA6ADi-39">
          <mxGeometry relative="1" as="geometry" />
        </mxCell>
        <mxCell id="FJCO3vSektQQV1xA6ADi-71" style="edgeStyle=orthogonalEdgeStyle;rounded=1;orthogonalLoop=1;jettySize=auto;html=1;exitX=0;exitY=0.5;exitDx=0;exitDy=0;entryX=1;entryY=0.5;entryDx=0;entryDy=0;curved=0;strokeColor=#FF0000;" edge="1" parent="1" source="FJCO3vSektQQV1xA6ADi-38" target="FJCO3vSektQQV1xA6ADi-28">
          <mxGeometry relative="1" as="geometry">
            <Array as="points">
              <mxPoint x="580" y="500" />
              <mxPoint x="580" y="670" />
            </Array>
          </mxGeometry>
        </mxCell>
        <mxCell id="FJCO3vSektQQV1xA6ADi-38" value="&lt;font style=&quot;font-size: 9px;&quot;&gt;&lt;font style=&quot;font-size: 9px;&quot;&gt;Q:&amp;nbsp;&lt;/font&gt;Does the smart contract of the meme have the vulnerability of balance modifications?&lt;/font&gt;" style="rounded=1;whiteSpace=wrap;html=1;" vertex="1" parent="1">
          <mxGeometry x="600" y="470" width="130" height="60" as="geometry" />
        </mxCell>
        <mxCell id="FJCO3vSektQQV1xA6ADi-65" style="edgeStyle=orthogonalEdgeStyle;rounded=0;orthogonalLoop=1;jettySize=auto;html=1;exitX=0.5;exitY=1;exitDx=0;exitDy=0;entryX=0.5;entryY=0;entryDx=0;entryDy=0;strokeColor=#00FF00;" edge="1" parent="1" source="FJCO3vSektQQV1xA6ADi-39" target="FJCO3vSektQQV1xA6ADi-36">
          <mxGeometry relative="1" as="geometry" />
        </mxCell>
        <mxCell id="FJCO3vSektQQV1xA6ADi-72" style="edgeStyle=orthogonalEdgeStyle;rounded=1;orthogonalLoop=1;jettySize=auto;html=1;exitX=0;exitY=0.5;exitDx=0;exitDy=0;curved=0;strokeColor=#FF0000;entryX=1;entryY=0.5;entryDx=0;entryDy=0;" edge="1" parent="1" source="FJCO3vSektQQV1xA6ADi-39" target="FJCO3vSektQQV1xA6ADi-28">
          <mxGeometry relative="1" as="geometry">
            <mxPoint x="350" y="670" as="targetPoint" />
            <Array as="points">
              <mxPoint x="580" y="590" />
              <mxPoint x="580" y="670" />
            </Array>
          </mxGeometry>
        </mxCell>
        <mxCell id="FJCO3vSektQQV1xA6ADi-39" value="&lt;font style=&quot;font-size: 9px;&quot;&gt;&lt;font style=&quot;font-size: 9px;&quot;&gt;Q:&amp;nbsp;&lt;/font&gt;Does the smart contract of the meme have the vulnerability of transactions limitations?&lt;/font&gt;" style="rounded=1;whiteSpace=wrap;html=1;" vertex="1" parent="1">
          <mxGeometry x="600" y="560" width="130" height="60" as="geometry" />
        </mxCell>
        <mxCell id="FJCO3vSektQQV1xA6ADi-42" style="edgeStyle=orthogonalEdgeStyle;rounded=1;orthogonalLoop=1;jettySize=auto;html=1;entryX=0.5;entryY=0;entryDx=0;entryDy=0;curved=0;strokeColor=#00CC00;" edge="1" parent="1" source="FJCO3vSektQQV1xA6ADi-12" target="FJCO3vSektQQV1xA6ADi-34">
          <mxGeometry relative="1" as="geometry">
            <Array as="points">
              <mxPoint x="400" y="410" />
              <mxPoint x="400" y="360" />
              <mxPoint x="500" y="360" />
            </Array>
          </mxGeometry>
        </mxCell>
        <mxCell id="FJCO3vSektQQV1xA6ADi-47" value="&lt;font style=&quot;font-size: 9px;&quot;&gt;No&lt;/font&gt;" style="text;html=1;align=center;verticalAlign=middle;whiteSpace=wrap;rounded=0;fillColor=#FFCCCC;" vertex="1" parent="1">
          <mxGeometry x="372" y="495" width="15" height="10" as="geometry" />
        </mxCell>
        <mxCell id="FJCO3vSektQQV1xA6ADi-48" value="&lt;font style=&quot;font-size: 9px;&quot;&gt;Yes&lt;/font&gt;" style="text;html=1;align=center;verticalAlign=middle;whiteSpace=wrap;rounded=0;fillColor=#FFCCCC;" vertex="1" parent="1">
          <mxGeometry x="372" y="583" width="15" height="10" as="geometry" />
        </mxCell>
        <mxCell id="FJCO3vSektQQV1xA6ADi-49" value="&lt;font style=&quot;font-size: 9px;&quot;&gt;Yes&lt;/font&gt;" style="text;html=1;align=center;verticalAlign=middle;whiteSpace=wrap;rounded=0;fillColor=#FFCCCC;" vertex="1" parent="1">
          <mxGeometry x="372" y="403" width="15" height="10" as="geometry" />
        </mxCell>
        <mxCell id="FJCO3vSektQQV1xA6ADi-52" value="&lt;font style=&quot;font-size: 9px;&quot;&gt;No&lt;/font&gt;" style="text;html=1;align=center;verticalAlign=middle;whiteSpace=wrap;rounded=0;fillColor=#E6E6E6;" vertex="1" parent="1">
          <mxGeometry x="490" y="445" width="20" height="10" as="geometry" />
        </mxCell>
        <mxCell id="FJCO3vSektQQV1xA6ADi-53" value="&lt;font style=&quot;font-size: 9px;&quot;&gt;Yes&lt;/font&gt;" style="text;html=1;align=center;verticalAlign=middle;whiteSpace=wrap;rounded=0;fillColor=#E6E6E6;" vertex="1" parent="1">
          <mxGeometry x="490" y="535" width="20" height="10" as="geometry" />
        </mxCell>
        <mxCell id="FJCO3vSektQQV1xA6ADi-61" value="&lt;font style=&quot;font-size: 9px;&quot;&gt;No&lt;/font&gt;" style="text;html=1;align=center;verticalAlign=middle;whiteSpace=wrap;rounded=0;fillColor=#E6E6E6;" vertex="1" parent="1">
          <mxGeometry x="583" y="405" width="16" height="10" as="geometry" />
        </mxCell>
        <mxCell id="FJCO3vSektQQV1xA6ADi-62" value="&lt;font style=&quot;font-size: 9px;&quot;&gt;Yes&lt;/font&gt;" style="text;html=1;align=center;verticalAlign=middle;whiteSpace=wrap;rounded=0;fillColor=#E6E6E6;" vertex="1" parent="1">
          <mxGeometry x="655" y="445" width="20" height="10" as="geometry" />
        </mxCell>
        <mxCell id="FJCO3vSektQQV1xA6ADi-63" value="&lt;font style=&quot;font-size: 9px;&quot;&gt;No&lt;/font&gt;" style="text;html=1;align=center;verticalAlign=middle;whiteSpace=wrap;rounded=0;fillColor=#E6E6E6;" vertex="1" parent="1">
          <mxGeometry x="657" y="535" width="20" height="10" as="geometry" />
        </mxCell>
        <mxCell id="FJCO3vSektQQV1xA6ADi-66" value="&lt;font style=&quot;font-size: 9px;&quot;&gt;No&lt;/font&gt;" style="text;html=1;align=center;verticalAlign=middle;whiteSpace=wrap;rounded=0;fillColor=#E6E6E6;" vertex="1" parent="1">
          <mxGeometry x="657" y="625" width="20" height="10" as="geometry" />
        </mxCell>
        <mxCell id="FJCO3vSektQQV1xA6ADi-78" value="&lt;font style=&quot;font-size: 9px;&quot;&gt;Yes&lt;/font&gt;" style="text;html=1;align=center;verticalAlign=middle;whiteSpace=wrap;rounded=0;fillColor=#E6E6E6;" vertex="1" parent="1">
          <mxGeometry x="424" y="405" width="9" height="10" as="geometry" />
        </mxCell>
        <mxCell id="FJCO3vSektQQV1xA6ADi-79" value="&lt;font style=&quot;font-size: 9px;&quot;&gt;Yes&lt;/font&gt;" style="text;html=1;align=center;verticalAlign=middle;whiteSpace=wrap;rounded=0;fillColor=#E6E6E6;" vertex="1" parent="1">
          <mxGeometry x="583" y="495" width="16" height="10" as="geometry" />
        </mxCell>
        <mxCell id="FJCO3vSektQQV1xA6ADi-80" value="&lt;font style=&quot;font-size: 9px;&quot;&gt;Yes&lt;/font&gt;" style="text;html=1;align=center;verticalAlign=middle;whiteSpace=wrap;rounded=0;fillColor=#E6E6E6;" vertex="1" parent="1">
          <mxGeometry x="583" y="585" width="16" height="10" as="geometry" />
        </mxCell>
        <mxCell id="FJCO3vSektQQV1xA6ADi-81" value="&lt;font style=&quot;font-size: 9px;&quot;&gt;No&lt;/font&gt;" style="text;html=1;align=center;verticalAlign=middle;whiteSpace=wrap;rounded=0;fillColor=#E6E6E6;" vertex="1" parent="1">
          <mxGeometry x="424" y="495" width="9" height="10" as="geometry" />
        </mxCell>
        <mxCell id="FJCO3vSektQQV1xA6ADi-83" value="&lt;font style=&quot;font-size: 9px;&quot;&gt;Yes&lt;/font&gt;" style="text;html=1;align=center;verticalAlign=middle;whiteSpace=wrap;rounded=0;fillColor=#E6E6E6;" vertex="1" parent="1">
          <mxGeometry x="424" y="585" width="9" height="10" as="geometry" />
        </mxCell>
        <mxCell id="FJCO3vSektQQV1xA6ADi-84" value="&lt;font style=&quot;font-size: 9px;&quot;&gt;No&lt;/font&gt;" style="text;html=1;align=center;verticalAlign=middle;whiteSpace=wrap;rounded=0;fillColor=#E6E6E6;" vertex="1" parent="1">
          <mxGeometry x="582" y="357" width="16" height="10" as="geometry" />
        </mxCell>
      </root>
    </mxGraphModel>
  </diagram>
</mxfile>
